<svg width="20" height="20" viewBox="0 0 20 20" xmlns="http://www.w3.org/2000/svg">
<path d="M10 9.16666C11.1051 9.16666 12.1649 9.60565 12.9463 10.3871C13.7277 11.1685 14.1667 12.2283 14.1667 13.3333V18.3333H5.83333V13.3333C5.83333 12.2283 6.27232 11.1685 7.05372 10.3871C7.83512 9.60565 8.89493 9.16666 10 9.16666ZM4.40667 11.6717C4.27405 12.119 4.19571 12.5806 4.17333 13.0467L4.16667 13.3333V18.3333H1.66667V14.5833C1.6665 13.8646 1.93169 13.1712 2.41136 12.636C2.89103 12.1008 3.55141 11.7616 4.26583 11.6833L4.4075 11.6717H4.40667ZM15.5933 11.6717C16.3349 11.7169 17.0313 12.0433 17.5405 12.5844C18.0497 13.1254 18.3332 13.8404 18.3333 14.5833V18.3333H15.8333V13.3333C15.8333 12.7558 15.75 12.1983 15.5933 11.6717ZM4.58333 6.66666C5.13587 6.66666 5.66577 6.88616 6.05647 7.27686C6.44717 7.66756 6.66667 8.19746 6.66667 8.75C6.66667 9.30253 6.44717 9.83244 6.05647 10.2231C5.66577 10.6138 5.13587 10.8333 4.58333 10.8333C4.0308 10.8333 3.50089 10.6138 3.11019 10.2231C2.71949 9.83244 2.5 9.30253 2.5 8.75C2.5 8.19746 2.71949 7.66756 3.11019 7.27686C3.50089 6.88616 4.0308 6.66666 4.58333 6.66666V6.66666ZM15.4167 6.66666C15.9692 6.66666 16.4991 6.88616 16.8898 7.27686C17.2805 7.66756 17.5 8.19746 17.5 8.75C17.5 9.30253 17.2805 9.83244 16.8898 10.2231C16.4991 10.6138 15.9692 10.8333 15.4167 10.8333C14.8641 10.8333 14.3342 10.6138 13.9435 10.2231C13.5528 9.83244 13.3333 9.30253 13.3333 8.75C13.3333 8.19746 13.5528 7.66756 13.9435 7.27686C14.3342 6.88616 14.8641 6.66666 15.4167 6.66666V6.66666ZM10 1.66666C10.8841 1.66666 11.7319 2.01785 12.357 2.64297C12.9821 3.2681 13.3333 4.11594 13.3333 5C13.3333 5.88405 12.9821 6.7319 12.357 7.35702C11.7319 7.98214 10.8841 8.33333 10 8.33333C9.11594 8.33333 8.2681 7.98214 7.64298 7.35702C7.01786 6.7319 6.66667 5.88405 6.66667 5C6.66667 4.11594 7.01786 3.2681 7.64298 2.64297C8.2681 2.01785 9.11594 1.66666 10 1.66666V1.66666Z"/>
</svg>
